<svg width="20.000000" height="20.000000" viewBox="0 0 20 20" fill="none" xmlns="http://www.w3.org/2000/svg" xmlns:xlink="http://www.w3.org/1999/xlink">
	<desc>
			Created with Pixso.
	</desc>
	<defs>
		<clipPath id="clip8_1021">
			<rect id="search" width="20.000000" height="20.000000" fill="white" fill-opacity="0"/>
		</clipPath>
	</defs>
	<g clip-path="url(#clip8_1021)">
		<path id="Icon" d="M7.4 15.26Q8.1 15.41 8.83 15.41Q9.56 15.41 10.26 15.26Q10.84 15.13 11.39 14.89Q11.95 14.66 12.45 14.33Q12.69 14.17 12.92 13.98L16.63 17.69C16.93 17.99 17.39 17.99 17.69 17.69C17.99 17.4 17.99 16.93 17.69 16.63L13.98 12.92Q14.17 12.69 14.33 12.45Q14.66 11.95 14.89 11.39Q15.13 10.84 15.26 10.26Q15.41 9.56 15.41 8.83Q15.41 8.1 15.26 7.4Q15.13 6.82 14.89 6.27Q14.66 5.71 14.33 5.21Q13.96 4.65 13.48 4.17Q13 3.69 12.45 3.33Q11.95 3 11.39 2.76Q10.84 2.53 10.26 2.4Q9.56 2.25 8.83 2.25Q8.1 2.25 7.4 2.4Q6.82 2.53 6.27 2.76Q5.71 3 5.21 3.33Q4.65 3.69 4.17 4.17Q3.69 4.65 3.33 5.21Q3 5.71 2.76 6.27Q2.53 6.82 2.4 7.4Q2.25 8.1 2.25 8.83Q2.25 9.56 2.4 10.26Q2.53 10.84 2.76 11.39Q3 11.95 3.33 12.45Q3.69 13 4.17 13.48Q4.65 13.96 5.21 14.33Q5.71 14.66 6.27 14.89Q6.82 15.13 7.4 15.26ZM9.96 13.79Q9.41 13.91 8.83 13.91Q8.25 13.91 7.69 13.79Q7.26 13.69 6.85 13.51Q6.43 13.33 6.05 13.09Q5.61 12.8 5.23 12.42Q4.86 12.05 4.57 11.61Q4.32 11.23 4.14 10.81Q3.97 10.39 3.87 9.96Q3.75 9.41 3.75 8.83Q3.75 8.25 3.87 7.69Q3.97 7.26 4.14 6.85Q4.32 6.43 4.57 6.05Q4.86 5.61 5.23 5.23Q5.61 4.86 6.05 4.57Q6.43 4.32 6.85 4.14Q7.26 3.97 7.69 3.87Q8.25 3.75 8.83 3.75Q9.41 3.75 9.96 3.87Q10.39 3.97 10.81 4.14Q11.23 4.32 11.61 4.57Q12.05 4.86 12.42 5.23Q12.8 5.61 13.09 6.05Q13.33 6.43 13.51 6.85Q13.69 7.26 13.79 7.69Q13.91 8.25 13.91 8.83Q13.91 9.41 13.79 9.96Q13.69 10.39 13.51 10.81Q13.33 11.23 13.09 11.61Q12.8 12.05 12.42 12.42Q12.05 12.8 11.61 13.09Q11.23 13.33 10.81 13.51Q10.39 13.69 9.96 13.79Z" fill="#807D7E" fill-opacity="1.000000" fill-rule="evenodd"/>
	</g>
</svg>
