<svg width="41.774414" height="40.433350" viewBox="0 0 41.7744 40.4333" fill="none" xmlns="http://www.w3.org/2000/svg" xmlns:xlink="http://www.w3.org/1999/xlink">
	<desc>
			Created with Pixso.
	</desc>
	<defs/>
	<path d="M38.15 14.06L37.65 17.89L33.82 18.38L30.76 20.74L27.71 18.38L23.87 17.89L23.38 14.06L21.02 11L23.38 7.94L23.87 4.11L27.71 3.62L30.76 1.26L33.82 3.62L37.65 4.11L38.15 7.94L40.51 11L38.15 14.06Z" stroke="#40DDB6" stroke-opacity="1.000000" stroke-width="2.000000"/>
	<path d="M36.06 17.58L36.06 29.09L30.76 25.54L25.46 29.09L25.46 17.58" stroke="#40DDB6" stroke-opacity="1.000000" stroke-width="2.000000"/>
	<path d="M22.88 20.83C21.28 23.09 18.65 24.55 15.69 24.55C11.09 24.55 7.27 21.01 6.91 16.43L5.87 3.23L21.79 3.23" stroke="#40DDB6" stroke-opacity="1.000000" stroke-width="2.000000"/>
	<path d="M6.67 16.45L4.46 16.45C3.38 16.45 2.47 15.64 2.34 14.57L1.01 8.25C0.86 6.99 1.85 5.87 3.13 5.87L6.07 5.87" stroke="#40DDB6" stroke-opacity="1.000000" stroke-width="2.000000"/>
	<path d="M17.86 24.11C17.86 24.11 18.33 29.47 21.1 31.85" stroke="#40DDB6" stroke-opacity="1.000000" stroke-width="2.000000"/>
	<path d="M13.67 24.11C13.67 24.11 13.21 29.47 10.43 31.85" stroke="#40DDB6" stroke-opacity="1.000000" stroke-width="2.000000"/>
	<path d="M7.57 36.13L7.57 33.72C7.57 32.53 8.46 31.57 9.55 31.57L21.98 31.57C23.08 31.57 23.96 32.53 23.96 33.72L23.96 36.13L23.96 36.13L7.57 36.13Z" stroke="#40DDB6" stroke-opacity="1.000000" stroke-width="2.000000"/>
	<path d="M5.7 39.43L5.7 38.28C5.7 37.1 6.58 36.13 7.68 36.13L23.86 36.13C24.95 36.13 25.84 37.1 25.84 38.28L25.84 39.43L5.7 39.43Z" stroke="#40DDB6" stroke-opacity="1.000000" stroke-width="2.000000"/>
	<path d="M25.84 39.43L25.84 38.28C25.84 37.09 24.95 36.13 23.86 36.13L7.68 36.13C6.59 36.13 5.7 37.09 5.7 38.28L5.7 39.43L25.84 39.43Z" stroke="#40DDB6" stroke-opacity="1.000000" stroke-width="2.000000"/>
	<path d="M26.63 13.08L29.14 14.93L35.16 7.26" stroke="#40DDB6" stroke-opacity="1.000000" stroke-width="2.000000"/>
</svg>
