<svg width="17.030273" height="23.580566" viewBox="0 0 17.0303 23.5806" fill="none" xmlns="http://www.w3.org/2000/svg" xmlns:xlink="http://www.w3.org/1999/xlink">
	<desc>
			Created with Pixso.
	</desc>
	<defs/>
	<path d="M0 8.02C0 3.54 3.86 0 8.51 0C13.16 0 17.03 3.54 17.03 8.02C17.03 10.54 15.64 13.68 14.1 16.4C12.55 19.17 10.76 21.66 9.8 22.93C9.65 23.13 9.45 23.29 9.23 23.41C9.01 23.52 8.76 23.58 8.51 23.58C8.26 23.58 8.01 23.52 7.79 23.41C7.57 23.29 7.37 23.13 7.22 22.93C6.26 21.65 4.47 19.16 2.92 16.4C1.38 13.68 0 10.54 0 8.02ZM8.51 1.5C4.59 1.5 1.5 4.46 1.5 8.02C1.5 10.11 2.69 12.95 4.22 15.67C5.73 18.35 7.48 20.78 8.42 22.03L8.43 22.04L8.43 22.04C8.43 22.05 8.45 22.06 8.46 22.06C8.48 22.07 8.49 22.08 8.51 22.08C8.53 22.08 8.54 22.07 8.56 22.06C8.57 22.06 8.59 22.05 8.59 22.04L8.6 22.03L8.6 22.03C9.54 20.78 11.29 18.35 12.8 15.67C14.33 12.95 15.53 10.11 15.53 8.02C15.53 4.46 12.43 1.5 8.51 1.5Z" fill="#40DDB6" fill-opacity="1.000000" fill-rule="evenodd"/>
	<path d="M8.51 6.93C7.21 6.93 6.15 7.99 6.15 9.29C6.15 10.59 7.21 11.64 8.51 11.64C9.81 11.64 10.87 10.59 10.87 9.29C10.87 7.99 9.81 6.93 8.51 6.93ZM4.65 9.29C4.65 7.16 6.38 5.43 8.51 5.43C10.64 5.43 12.37 7.16 12.37 9.29C12.37 11.42 10.64 13.14 8.51 13.14C6.38 13.14 4.65 11.42 4.65 9.29Z" fill="#40DDB6" fill-opacity="1.000000" fill-rule="evenodd"/>
</svg>
