<svg width="17.087891" height="16.356445" viewBox="0 0 17.0879 16.3564" fill="none" xmlns="http://www.w3.org/2000/svg" xmlns:xlink="http://www.w3.org/1999/xlink">
	<desc>
			Created with Pixso.
	</desc>
	<defs/>
	<path d="M17.08 8.22C17.08 3.68 13.26 0 8.54 0C3.82 0 0 3.68 0 8.22C0 12.33 3.12 15.73 7.2 16.35L7.2 10.6L5.03 10.6L5.03 8.22L7.2 8.22L7.2 6.41C7.2 4.35 8.48 3.21 10.43 3.21C11.37 3.21 12.34 3.37 12.34 3.37L12.34 5.39L11.27 5.39C10.21 5.39 9.87 6.03 9.87 6.68L9.87 8.22L12.24 8.22L11.86 10.6L9.87 10.6L9.87 16.35C13.96 15.73 17.08 12.33 17.08 8.22Z" fill="#FFFFFF" fill-opacity="1.000000" fill-rule="evenodd"/>
</svg>
