<svg width="17.087891" height="16.455078" viewBox="0 0 17.0879 16.4551" fill="none" xmlns="http://www.w3.org/2000/svg" xmlns:xlink="http://www.w3.org/1999/xlink">
	<desc>
			Created with Pixso.
	</desc>
	<defs/>
	<path d="M12.1 1.37C13.04 1.37 13.95 1.73 14.61 2.37C15.28 3.02 15.66 3.89 15.66 4.79L15.66 11.65C15.66 12.56 15.28 13.43 14.61 14.07C13.95 14.71 13.04 15.08 12.1 15.08L4.98 15.08C4.04 15.08 3.13 14.71 2.46 14.07C1.8 13.43 1.42 12.56 1.42 11.65L1.42 4.79C1.42 3.89 1.8 3.02 2.46 2.37C3.13 1.73 4.04 1.37 4.98 1.37L12.1 1.37ZM12.1 0L4.98 0C2.24 0 0 2.15 0 4.79L0 11.65C0 14.29 2.24 16.45 4.98 16.45L12.1 16.45C14.84 16.45 17.08 14.29 17.08 11.65L17.08 4.79C17.08 2.15 14.84 0 12.1 0Z" fill="#FFFFFF" fill-opacity="1.000000" fill-rule="nonzero"/>
	<path d="M13.17 4.79C12.96 4.79 12.75 4.73 12.58 4.62C12.4 4.51 12.26 4.35 12.18 4.16C12.1 3.97 12.08 3.77 12.12 3.57C12.16 3.37 12.26 3.18 12.41 3.04C12.56 2.89 12.75 2.8 12.96 2.76C13.17 2.72 13.38 2.74 13.58 2.82C13.77 2.89 13.94 3.03 14.06 3.19C14.17 3.36 14.24 3.56 14.24 3.77C14.24 3.9 14.21 4.04 14.16 4.16C14.1 4.29 14.02 4.4 13.92 4.49C13.83 4.59 13.71 4.67 13.58 4.72C13.45 4.77 13.31 4.79 13.17 4.79ZM8.54 5.48C9.1 5.48 9.65 5.64 10.12 5.94C10.59 6.24 10.96 6.67 11.17 7.17C11.39 7.67 11.44 8.23 11.33 8.76C11.22 9.29 10.95 9.78 10.55 10.16C10.16 10.55 9.65 10.81 9.1 10.91C8.54 11.02 7.97 10.96 7.45 10.76C6.93 10.55 6.49 10.2 6.17 9.75C5.86 9.3 5.69 8.77 5.69 8.22C5.69 7.5 5.99 6.8 6.53 6.28C7.06 5.77 7.79 5.48 8.54 5.48ZM8.54 4.11C7.7 4.11 6.87 4.35 6.17 4.8C5.46 5.25 4.92 5.9 4.59 6.65C4.27 7.4 4.19 8.23 4.35 9.03C4.52 9.82 4.92 10.56 5.52 11.13C6.12 11.71 6.88 12.1 7.71 12.26C8.54 12.42 9.39 12.33 10.18 12.02C10.96 11.71 11.62 11.18 12.09 10.51C12.56 9.83 12.81 9.04 12.81 8.22C12.81 7.13 12.36 6.09 11.56 5.31C10.76 4.54 9.67 4.11 8.54 4.11Z" fill="#FFFFFF" fill-opacity="1.000000" fill-rule="nonzero"/>
</svg>
