<svg width="21.688477" height="17.029785" viewBox="0 0 21.6885 17.0298" fill="none" xmlns="http://www.w3.org/2000/svg" xmlns:xlink="http://www.w3.org/1999/xlink">
	<desc>
			Created with Pixso.
	</desc>
	<defs/>
	<path d="M2.69 1.5C2.03 1.5 1.5 2.03 1.5 2.69L1.5 14.33C1.5 14.99 2.03 15.52 2.69 15.52L18.99 15.52C19.65 15.52 20.18 14.99 20.18 14.33L20.18 2.69C20.18 2.03 19.65 1.5 18.99 1.5L2.69 1.5ZM0 2.69C0 1.2 1.2 0 2.69 0L18.99 0C20.48 0 21.68 1.2 21.68 2.69L21.68 14.33C21.68 15.82 20.48 17.02 18.99 17.02L2.69 17.02C1.2 17.02 0 15.82 0 14.33L0 2.69Z" fill="#40DDB6" fill-opacity="1.000000" fill-rule="evenodd"/>
	<path d="M3.26 3.39C3.51 3.06 3.98 3.01 4.31 3.26L10.84 8.34L17.37 3.26C17.69 3.01 18.16 3.06 18.42 3.39C18.67 3.72 18.62 4.19 18.29 4.44L11.3 9.88C11.03 10.09 10.65 10.09 10.38 9.88L3.39 4.44C3.06 4.19 3 3.72 3.26 3.39Z" fill="#40DDB6" fill-opacity="1.000000" fill-rule="evenodd"/>
</svg>
