<svg width="200.000000" height="38.000000" viewBox="0 0 200 38" fill="none" xmlns="http://www.w3.org/2000/svg" xmlns:xlink="http://www.w3.org/1999/xlink">
	<desc>
			Created with Pixso.
	</desc>
	<defs/>
	<path d="M91.37 12.21Q91.99 12.6 92.84 12.6Q93.64 12.6 94.24 12.25Q94.46 12.12 94.66 11.94Q95.01 11.6 95.19 11.2Q95.37 10.78 95.37 10.29Q95.37 9.75 95.16 9.3Q94.98 8.93 94.66 8.63Q94.45 8.45 94.22 8.31Q93.63 7.97 92.84 7.97Q92 7.97 91.38 8.35Q91.18 8.47 91.01 8.63Q90.68 8.93 90.51 9.3Q90.29 9.75 90.29 10.29Q90.29 10.78 90.47 11.2Q90.65 11.6 91.01 11.94Q91.18 12.09 91.37 12.21ZM85.2 14.6Q84.02 13.9 82.42 13.9Q81.02 13.9 79.89 14.45Q78.91 14.93 78.28 15.7Q78.2 15.81 78.12 15.92L78.12 9.5L73.85 9.5L73.85 28L78.12 28L78.12 20.42Q78.12 19.09 78.77 18.33Q78.81 18.29 78.84 18.25Q79.05 18.03 79.29 17.88Q79.91 17.47 80.8 17.47Q81.67 17.47 82.29 17.87Q82.54 18.03 82.74 18.25Q82.78 18.29 82.81 18.33Q83.47 19.09 83.47 20.42L83.47 28L87.72 28L87.72 19.85Q87.72 17.24 86.44 15.69Q86.36 15.58 86.27 15.48Q85.78 14.95 85.2 14.6ZM123.87 14.84Q122.89 16.77 122.89 19.19Q122.89 21.63 123.88 23.57Q123.95 23.69 124.02 23.82Q124.6 24.87 125.43 25.68Q126.19 26.44 127.15 26.98Q127.42 27.13 127.69 27.26Q129.5 28.12 131.72 28.12Q134.25 28.12 136.18 27.05Q136.64 26.79 137.07 26.48Q137.86 25.9 138.47 25.16Q139.56 23.83 140.05 22L135.35 22Q134.96 22.8 134.34 23.33Q134.11 23.52 133.86 23.67Q133.68 23.78 133.5 23.86Q132.68 24.25 131.67 24.25Q130.47 24.25 129.55 23.74Q128.95 23.42 128.47 22.87Q128.35 22.75 128.25 22.61Q127.25 21.28 127.25 19.19Q127.25 17.1 128.25 15.78Q128.35 15.65 128.47 15.52Q128.95 14.98 129.55 14.65Q130.47 14.15 131.67 14.15Q132.68 14.15 133.5 14.53Q133.68 14.62 133.86 14.72Q134.11 14.87 134.33 15.06Q134.96 15.58 135.35 16.39L140.05 16.39Q139.57 14.59 138.5 13.26Q137.88 12.5 137.07 11.9Q136.61 11.56 136.12 11.29Q134.2 10.25 131.72 10.25Q129.52 10.25 127.72 11.09Q127.43 11.23 127.15 11.39Q126.22 11.92 125.48 12.64Q124.62 13.47 124.02 14.56Q123.94 14.7 123.87 14.84ZM67.12 28L71.7 10.45L67.09 10.45L64.54 23.22L61.55 10.45L56.85 10.45L53.72 23.22L51.2 10.45L46.62 10.45L51.07 28L56.24 28L59.14 16.45L61.94 28L67.12 28ZM105.85 28L105.85 24.37L104.32 24.37Q103.62 24.37 103.32 24.09Q103.02 23.82 103.02 23.2L103.02 17.59L105.82 17.59L105.82 14.04L103.02 14.04L103.02 10.64L98.75 10.64L98.75 14.04L97.04 14.04L97.04 17.59L98.75 17.59L98.75 23.14Q98.75 25.68 100.01 26.83Q100.03 26.84 100.05 26.86Q101.35 28 103.67 28L105.85 28ZM121.29 22.04Q121.37 21.4 121.37 20.79Q121.37 18.69 120.48 17.12Q120.01 16.28 119.35 15.65Q118.76 15.09 118.02 14.7Q118.01 14.69 117.99 14.68Q116.43 13.85 114.42 13.85Q112.35 13.85 110.75 14.72L110.75 14.72Q110.05 15.1 109.48 15.63Q108.76 16.31 108.26 17.22Q107.37 18.85 107.37 21.02Q107.37 23.2 108.27 24.82Q108.77 25.73 109.5 26.4Q110.07 26.94 110.77 27.32Q110.84 27.36 110.9 27.39Q112.46 28.2 114.42 28.2Q116.12 28.2 117.49 27.57Q118.59 27.07 119.4 26.27Q119.6 26.07 119.78 25.85Q120.26 25.27 120.59 24.61Q120.88 24.02 121.04 23.37L116.5 23.37Q116.22 23.96 115.76 24.29Q115.17 24.72 114.27 24.72Q113.6 24.72 113.06 24.45Q112.74 24.29 112.46 24.03Q112.41 23.99 112.36 23.94Q111.71 23.26 111.62 22.04L121.29 22.04ZM145.63 27.47Q147.15 28.2 149.02 28.2Q150.82 28.2 152.31 27.53Q152.52 27.43 152.73 27.32Q153.53 26.9 154.16 26.31Q154.85 25.66 155.35 24.81Q155.43 24.67 155.51 24.53Q156.32 22.99 156.32 21.02Q156.32 19 155.47 17.43Q155.42 17.33 155.37 17.23Q154.85 16.34 154.13 15.68Q153.52 15.12 152.77 14.72Q152.57 14.62 152.37 14.53Q150.88 13.85 149.07 13.85Q147.26 13.85 145.75 14.53Q145.56 14.62 145.37 14.72Q144.64 15.11 144.05 15.64Q143.3 16.32 142.77 17.23Q142.72 17.31 142.68 17.4Q141.82 18.97 141.82 21.02Q141.82 23.2 142.76 24.82Q143.26 25.69 143.96 26.34Q144.57 26.91 145.33 27.32Q145.48 27.4 145.63 27.47ZM173.31 17.22Q172.5 18.85 172.5 20.99Q172.5 23.14 173.31 24.78Q173.98 26.14 175.05 26.98Q175.28 27.16 175.52 27.31Q176.12 27.69 176.77 27.91Q177.65 28.2 178.62 28.2Q180.1 28.2 181.21 27.6Q182.14 27.09 182.73 26.33Q182.84 26.18 182.95 26.02L182.95 28L187.22 28L187.22 14.04L182.95 14.04L182.95 16.02Q182.86 15.88 182.76 15.75Q182.19 14.96 181.23 14.45Q180.12 13.85 178.64 13.85Q177.55 13.85 176.59 14.2Q176.03 14.4 175.52 14.72Q175.28 14.87 175.05 15.04Q173.98 15.87 173.31 17.22ZM195.92 14.93Q195.15 15.51 194.59 16.37L194.59 14.04L190.32 14.04L190.32 28L194.59 28L194.59 21.52Q194.59 19.8 195.39 19.11Q196.2 18.42 197.8 18.42L198.97 18.42L198.97 13.9Q198.05 13.9 197.24 14.19Q196.84 14.34 196.47 14.56Q196.18 14.73 195.92 14.93ZM94.97 28L94.97 14.04L90.7 14.04L90.7 28L94.97 28ZM116.68 18.44Q117 18.96 117 19.67L111.64 19.67Q111.8 18.68 112.36 18.08Q112.45 17.99 112.55 17.9Q112.76 17.72 112.99 17.6Q113.59 17.27 114.37 17.27Q115.2 17.27 115.83 17.63Q116.05 17.75 116.25 17.92Q116.51 18.15 116.68 18.44ZM150.11 24.29Q149.61 24.5 149.02 24.5Q148.4 24.5 147.88 24.27Q147.38 24.04 146.98 23.6Q146.17 22.7 146.17 21.02Q146.17 19.32 146.99 18.44Q147.37 18.03 147.84 17.81Q148.39 17.55 149.07 17.55Q149.67 17.55 150.17 17.76Q150.7 17.99 151.13 18.45Q151.14 18.46 151.15 18.47Q151.97 19.36 151.97 21.02Q151.97 22.63 151.17 23.53Q151.14 23.57 151.11 23.6Q150.66 24.07 150.11 24.29ZM182.28 18.76Q182.95 19.64 182.95 21.02Q182.95 22.4 182.28 23.28Q182.18 23.42 182.06 23.55Q181.61 24.01 181.07 24.24Q180.53 24.47 179.89 24.47Q179.28 24.47 178.76 24.25Q178.19 24.02 177.73 23.53Q177.61 23.41 177.51 23.27Q176.84 22.38 176.84 20.99Q176.84 19.59 177.52 18.72Q177.62 18.6 177.73 18.49Q178.18 18.03 178.72 17.8Q179.26 17.57 179.89 17.57Q180.52 17.57 181.06 17.79Q181.61 18.03 182.06 18.5Q182.18 18.62 182.28 18.76Z" fill="#37393F" fill-opacity="1.000000" fill-rule="evenodd"/>
	<path d="M162.87 28L162.87 9.5L158.6 9.5L158.6 28L162.87 28ZM170.24 28L170.24 9.5L165.97 9.5L165.97 28L170.24 28Z" fill="#6B77E5" fill-opacity="1.000000" fill-rule="evenodd"/>
	<path d="M0 6L5.87 6L19.4 29.4L16.55 34.62L0 6ZM8.49 6L14.37 6L28.2 29.91L25.26 35L8.49 6Z" fill="#40DDB6" fill-opacity="1.000000" fill-rule="evenodd"/>
	<path d="M32.53 22.69L36.3 16.16L30.42 16.16L29.59 17.6L25.43 10.41L39.62 10.41L42.17 6L17 6L29.59 27.78L32.53 22.69L32.53 22.69Z" fill="#6B77E5" fill-opacity="1.000000" fill-rule="nonzero"/>
</svg>
