<svg width="17.359375" height="17.359375" viewBox="0 0 17.3594 17.3594" fill="none" xmlns="http://www.w3.org/2000/svg" xmlns:xlink="http://www.w3.org/1999/xlink">
	<desc>
			Created with Pixso.
	</desc>
	<defs/>
	<path d="M8.68 0C3.88 0 0 3.88 0 8.67C0 12.23 2.13 15.28 5.19 16.62C5.17 16.02 5.19 15.29 5.34 14.63C5.51 13.93 6.46 9.9 6.46 9.9C6.46 9.9 6.18 9.35 6.18 8.53C6.18 7.24 6.92 6.28 7.86 6.28C8.65 6.28 9.03 6.88 9.03 7.58C9.03 8.38 8.52 9.56 8.26 10.66C8.04 11.59 8.72 12.33 9.63 12.33C11.27 12.33 12.38 10.22 12.38 7.72C12.38 5.82 11.1 4.4 8.77 4.4C6.14 4.4 4.5 6.36 4.5 8.55C4.5 9.31 4.72 9.84 5.07 10.25C5.23 10.44 5.25 10.52 5.19 10.74C5.15 10.9 5.06 11.28 5.01 11.43C4.96 11.66 4.78 11.73 4.58 11.65C3.37 11.16 2.8 9.83 2.8 8.34C2.8 5.87 4.88 2.92 9.01 2.92C12.32 2.92 14.5 5.31 14.5 7.89C14.5 11.29 12.61 13.83 9.82 13.83C8.88 13.83 8 13.33 7.7 12.75C7.7 12.75 7.19 14.75 7.08 15.14C6.9 15.81 6.54 16.48 6.21 17C7.01 17.23 7.84 17.35 8.67 17.35C13.47 17.35 17.35 13.47 17.35 8.68C17.35 3.88 13.47 0 8.68 0Z" fill="#FFFFFF" fill-opacity="1.000000" fill-rule="nonzero"/>
</svg>
