<svg width="15.782227" height="15.781738" viewBox="0 0 15.7822 15.7817" fill="none" xmlns="http://www.w3.org/2000/svg" xmlns:xlink="http://www.w3.org/1999/xlink">
	<desc>
			Created with Pixso.
	</desc>
	<defs/>
	<path d="M0 7.89C0 3.53 3.53 0 7.89 0C12.24 0 15.78 3.53 15.78 7.89C15.78 12.24 12.24 15.78 7.89 15.78C3.53 15.78 0 12.24 0 7.89ZM7.89 1.5C4.36 1.5 1.5 4.36 1.5 7.89C1.5 11.41 4.36 14.28 7.89 14.28C11.41 14.28 14.28 11.41 14.28 7.89C14.28 4.36 11.41 1.5 7.89 1.5Z" fill="#40DDB6" fill-opacity="1.000000" fill-rule="evenodd"/>
	<path d="M7.89 2.38C8.3 2.38 8.64 2.71 8.64 3.13L8.64 7.73L11.46 7.73C11.87 7.73 12.21 8.07 12.21 8.48C12.21 8.9 11.87 9.23 11.46 9.23L7.89 9.23C7.47 9.23 7.14 8.9 7.14 8.48L7.14 3.13C7.14 2.71 7.47 2.38 7.89 2.38Z" fill="#40DDB6" fill-opacity="1.000000" fill-rule="evenodd"/>
</svg>
