<svg width="18.308594" height="14.646973" viewBox="0 0 18.3086 14.647" fill="none" xmlns="http://www.w3.org/2000/svg" xmlns:xlink="http://www.w3.org/1999/xlink">
	<desc>
			Created with Pixso.
	</desc>
	<defs/>
	<path d="M18.3 1.73C17.62 2.03 16.89 2.23 16.15 2.31C16.93 1.86 17.52 1.13 17.8 0.27C17.06 0.7 16.25 1 15.41 1.17C15.06 0.8 14.63 0.5 14.16 0.3C13.69 0.1 13.18 -0.01 12.67 0C10.59 0 8.91 1.65 8.91 3.69C8.91 3.97 8.95 4.26 9.01 4.53C7.52 4.46 6.07 4.08 4.73 3.42C3.4 2.75 2.22 1.82 1.27 0.67C0.94 1.23 0.76 1.87 0.76 2.53C0.76 3.81 1.43 4.94 2.44 5.61C1.84 5.59 1.25 5.43 0.73 5.14L0.73 5.19C0.73 6.98 2.03 8.47 3.74 8.81C3.42 8.9 3.09 8.94 2.75 8.94C2.51 8.94 2.28 8.92 2.05 8.87C2.52 10.34 3.91 11.41 5.56 11.44C4.22 12.47 2.58 13.03 0.89 13.02C0.59 13.02 0.29 13.01 0 12.97C1.71 14.07 3.71 14.65 5.75 14.64C12.66 14.64 16.44 9.01 16.44 4.12C16.44 3.96 16.44 3.8 16.43 3.65C17.16 3.12 17.8 2.47 18.3 1.73Z" fill="#FFFFFF" fill-opacity="1.000000" fill-rule="nonzero"/>
</svg>
