<svg width="24.000000" height="24.000000" viewBox="0 0 24 24" fill="none" xmlns="http://www.w3.org/2000/svg" xmlns:xlink="http://www.w3.org/1999/xlink">
	<desc>
			Created with Pixso.
	</desc>
	<defs/>
	<g style="mix-blend-mode:normal">
		<path id="Oval" d="M12 24C18.62 24 24 18.62 24 12C24 5.37 18.62 0 12 0C5.37 0 0 5.37 0 12C0 18.62 5.37 24 12 24Z" fill="#F55529" fill-opacity="1.000000" fill-rule="evenodd"/>
	</g>
	<path id="Union" d="M12.86 7.23C13.18 6.92 13.71 6.92 14.03 7.23L17.7 10.8C18.09 11.18 18.09 11.81 17.7 12.19L14.03 15.76C13.71 16.07 13.18 16.07 12.86 15.76C12.54 15.44 12.54 14.93 12.86 14.62L15.05 12.49L7.01 12.49C6.45 12.49 6 12.05 6 11.5C6 10.96 6.45 10.52 7.01 10.52L15.07 10.52L12.86 8.37C12.54 8.06 12.54 7.55 12.86 7.23Z" fill="#F0F0F0" fill-opacity="1.000000" fill-rule="evenodd"/>
</svg>
