<svg width="14.294922" height="13.693970" viewBox="0 0 14.2949 13.694" fill="none" xmlns="http://www.w3.org/2000/svg" xmlns:xlink="http://www.w3.org/1999/xlink">
	<desc>
			Created with Pixso.
	</desc>
	<defs/>
	<path d="M6.27 0.5L4.67 3.35C4.53 3.6 4.28 3.78 4 3.84L0.8 4.48C0.03 4.63 -0.27 5.56 0.26 6.14L2.47 8.54C2.66 8.75 2.76 9.04 2.72 9.33L2.35 12.57C2.26 13.35 3.05 13.92 3.76 13.6L6.73 12.24C6.99 12.12 7.29 12.12 7.56 12.24L10.53 13.6C11.23 13.92 12.02 13.35 11.94 12.57L11.56 9.33C11.53 9.04 11.62 8.75 11.82 8.54L14.03 6.14C14.55 5.56 14.25 4.63 13.49 4.48L10.29 3.84C10 3.78 9.76 3.6 9.62 3.35L8.01 0.5C7.63 -0.17 6.65 -0.17 6.27 0.5Z" fill="#FFB342" fill-opacity="1.000000" fill-rule="evenodd"/>
</svg>
