<svg width="359.841797" height="420.812012" viewBox="0 0 359.842 420.812" fill="none" xmlns="http://www.w3.org/2000/svg" xmlns:xlink="http://www.w3.org/1999/xlink">
	<desc>
			Created with Pixso.
	</desc>
	<defs/>
	<path id="Vector" d="M347.39 54.68C349.24 67.42 347.67 80.03 346.16 92.29C345.24 99.74 344.31 107.41 344.08 115.15C343.45 138.75 346.39 162.32 352.8 185.05L353.9 188.9C358.6 205.2 363.91 223.68 355.09 238.45C348.41 249.64 335.02 256.29 314.12 258.85C300.46 260.51 290.07 262.7 281.37 265.77C269.89 269.82 261.7 275.46 256.99 282.52C251.52 290.75 250.49 301.27 254.03 313.75C255.51 319.04 257.56 324.34 259.59 329.44C263.32 338.98 267.17 348.84 267.4 359.11C267.42 360 267.41 360.89 267.38 361.78C266.92 370.11 264.18 378.15 259.45 385.03C254.74 392 248.63 397.92 241.51 402.41C226.41 412.01 208.42 415.37 194.43 417.23C175.26 419.88 155.91 421.06 136.56 420.76C114.33 420.3 95.12 417.42 79.44 412.23C64.68 407.34 51.36 398.87 40.69 387.56C29.53 375.52 23.24 361.52 22.51 347.09C21.79 333.23 26.11 319.71 30.28 306.66C31.99 301.3 33.76 295.77 35.16 290.3C38.95 275.25 40.13 259.66 38.64 244.22C37.21 228.76 33.25 213.65 26.93 199.47C23.68 192.47 20.05 185.66 16.08 179.04C5.51 160.79 -4.47 143.53 2.09 119.02C5.77 105.26 15.1 93.22 29.02 84.25C41.28 76.33 56.82 70.99 72.76 69.2C89.53 67.32 106.65 68.38 123.21 69.42C136.64 70.16 150.47 71.01 163.98 70.35C179.15 69.58 201.02 66.04 219.03 53.51C227.22 47.82 233.74 40.12 240.06 32.66C245.42 26.34 250.98 19.8 257.58 14.35C265.45 7.9 277.96 0.17 292.85 0C304.8 -0.14 316.38 4.72 326.39 14.1C335.72 22.96 342.43 34.21 345.79 46.63C346.48 49.28 347.01 51.97 347.39 54.68ZM345.17 155.33C343.24 142.02 342.45 128.56 342.8 115.12C343.01 107.35 343.96 99.62 344.89 92.13C346.8 76.7 348.59 62.14 344.49 46.89C341.2 34.72 334.62 23.68 325.49 14.98C315.77 5.88 304.5 1.13 292.88 1.27C278.37 1.44 266.12 9.01 258.4 15.34C251.88 20.69 246.37 27.19 241.04 33.49C234.66 40.99 228.08 48.75 219.78 54.56C201.51 67.25 179.4 70.83 164.07 71.63C150.45 72.32 136.61 71.45 123.21 70.62C106.7 69.59 89.64 68.52 72.96 70.42C57.19 72.2 41.9 77.42 29.74 85.3C16.06 94.14 6.92 105.92 3.33 119.36C-3.08 143.37 6.75 160.4 17.18 178.42C21.18 185.07 24.83 191.93 28.1 198.97C34.48 213.27 38.47 228.52 39.91 244.11C41.41 259.7 40.23 275.44 36.4 290.62C34.99 296.15 33.22 301.7 31.52 307.09C27.38 320.06 23.1 333.44 23.8 347.08C24.52 361.21 30.69 374.93 41.67 386.78C52.2 397.92 65.33 406.28 79.88 411.09C95.42 416.26 114.52 419.11 136.63 419.56C155.9 419.84 175.16 418.65 194.25 416.01C208.13 414.14 225.95 410.84 240.82 401.38C247.79 396.98 253.77 391.19 258.39 384.37C262.98 377.69 265.65 369.87 266.1 361.77C266.14 360.92 266.14 360.04 266.12 359.17C265.9 349.14 262.08 339.39 258.39 329.94C256.38 324.81 254.3 319.49 252.79 314.13C249.17 301.25 250.21 290.38 255.9 281.88C260.76 274.59 269.18 268.78 280.92 264.64C289.74 261.51 300.19 259.33 313.94 257.66C334.41 255.18 347.5 248.7 353.98 237.86C357.82 231.55 359.17 223.87 358.27 214.5C357.44 206.22 355 197.62 352.62 189.35L351.52 185.51C348.75 175.6 346.62 165.51 345.17 155.33Z" fill="#FFFFFF" fill-opacity="0.270000" fill-rule="nonzero"/>
</svg>
