<svg width="50.000000" height="50.000000" viewBox="0 0 50 50" fill="none" xmlns="http://www.w3.org/2000/svg" xmlns:xlink="http://www.w3.org/1999/xlink">
	<desc>
			Created with Pixso.
	</desc>
	<defs/>
	<rect id="Rectangle 294" rx="25.000000" width="50.000000" height="50.000000" fill="#40DDB6" fill-opacity="1.000000"/>
	<path id="Vector" d="M36.9153 25.0688C36.9153 18.7324 31.5798 13.5945 24.9998 13.5945C18.4194 13.5945 13.084 18.7324 13.084 25.0688C13.084 30.7959 17.4407 35.5427 23.1379 36.4045L23.1379 28.3867L20.1116 28.3867L20.1116 25.0688L23.1379 25.0688L23.1379 22.541C23.1379 19.6658 24.9172 18.0762 27.6387 18.0762C28.9426 18.0762 30.3064 18.3005 30.3064 18.3005L30.3064 21.1245L28.8032 21.1245C27.3237 21.1245 26.8611 22.0088 26.8611 22.9175L26.8611 25.0688L30.1655 25.0688L29.6377 28.3867L26.8616 28.3867L26.8616 36.4055C32.5586 35.5444 36.9153 30.7974 36.9153 25.0688Z" fill="#FFFFFF" fill-opacity="1.000000" fill-rule="evenodd"/>
</svg>
