<svg width="45.000000" height="45.000000" viewBox="0 0 45 45" fill="none" xmlns="http://www.w3.org/2000/svg" xmlns:xlink="http://www.w3.org/1999/xlink">
	<desc>
			Created with Pixso.
	</desc>
	<defs/>
	<rect id="Rectangle 293" rx="22.500000" width="45.000000" height="45.000000" fill="#40DDB6" fill-opacity="1.000000"/>
	<path id="Vector" d="M27.4648 12.9377C28.7805 12.9417 30.0413 13.4465 30.9714 14.3425C31.9019 15.2383 32.4263 16.4521 32.4302 17.7192L32.4302 27.2808C32.4263 28.5479 31.9019 29.7617 30.9714 30.6575C30.0413 31.5535 28.7805 32.0583 27.4648 32.0623L17.5354 32.0623C16.2197 32.0583 14.9592 31.5535 14.0288 30.6575C13.0986 29.7617 12.5742 28.5479 12.5703 27.2808L12.5703 17.7192C12.5742 16.4521 13.0986 15.2383 14.0288 14.3425C14.9592 13.4465 16.2197 12.9417 17.5354 12.9377L27.4648 12.9377ZM27.4648 11.0256L17.5354 11.0256C13.7124 11.0256 10.5845 14.0376 10.5845 17.7192L10.5845 27.2808C10.5845 30.9624 13.7124 33.9744 17.5354 33.9744L27.4648 33.9744C31.2881 33.9744 34.4158 30.9624 34.4158 27.2808L34.4158 17.7192C34.4158 14.0376 31.2881 11.0256 27.4648 11.0256Z" fill="#FFFFFF" fill-opacity="1.000000" fill-rule="nonzero"/>
	<path id="Vector" d="M28.9541 17.7192C28.6594 17.7192 28.3713 17.635 28.1265 17.4775C27.8816 17.3198 27.6907 17.0959 27.5779 16.8337C27.4651 16.5718 27.4358 16.2832 27.4932 16.0051C27.5505 15.7268 27.6924 15.4712 27.9009 15.2708C28.1091 15.0701 28.3745 14.9336 28.6633 14.8782C28.9524 14.8228 29.252 14.8513 29.5239 14.9597C29.7961 15.0684 30.0288 15.2522 30.1924 15.488C30.3562 15.7239 30.4434 16.0012 30.4434 16.2849C30.4438 16.4734 30.4058 16.6602 30.3311 16.8342C30.2563 17.0085 30.1465 17.1667 30.0081 17.3C29.8699 17.4333 29.7053 17.5388 29.5244 17.6108C29.3435 17.6829 29.1497 17.7195 28.9541 17.7192ZM22.4998 18.675C23.2854 18.675 24.0535 18.8994 24.7065 19.3196C25.3599 19.74 25.8689 20.3374 26.1697 21.0361C26.4702 21.7351 26.5488 22.5042 26.3955 23.2463C26.2424 23.9883 25.864 24.6697 25.3086 25.2046C24.7529 25.7395 24.0452 26.104 23.2747 26.2515C22.5042 26.3992 21.7056 26.3232 20.9797 26.0337C20.2539 25.7444 19.6335 25.2542 19.1973 24.625C18.7607 23.9961 18.5278 23.2566 18.5278 22.5C18.5288 21.4858 18.9478 20.5137 19.6924 19.7966C20.437 19.0793 21.4468 18.676 22.4998 18.675ZM22.4998 16.7627C21.3215 16.7627 20.1697 17.0994 19.1899 17.7297C18.21 18.3601 17.4465 19.2561 16.9956 20.3044C16.5447 21.3528 16.4265 22.5063 16.6565 23.6194C16.8865 24.7322 17.4539 25.7544 18.2871 26.5569C19.1201 27.3591 20.1819 27.9055 21.3376 28.127C22.4932 28.3484 23.6912 28.2346 24.7798 27.8005C25.8684 27.3662 26.7991 26.6309 27.4536 25.6875C28.1082 24.7439 28.4578 23.6348 28.4578 22.5C28.4578 20.9785 27.8301 19.519 26.7126 18.4431C25.5955 17.3672 24.0801 16.7627 22.4998 16.7627Z" fill="#FFFFFF" fill-opacity="1.000000" fill-rule="nonzero"/>
</svg>
