<svg width="200.000000" height="38.000000" viewBox="0 0 200 38" fill="none" xmlns="http://www.w3.org/2000/svg" xmlns:xlink="http://www.w3.org/1999/xlink">
	<desc>
			Created with Pixso.
	</desc>
	<defs/>
	<path d="M71.7019 10.4524L67.1243 28L61.9485 28L59.147 16.4521L56.2478 28L51.072 28L46.6226 10.4524L51.2002 10.4524L53.7271 23.2271L56.8521 10.4524L61.5518 10.4524L64.5486 23.2271L67.0999 10.4524L71.7019 10.4524ZM82.4257 13.9009Q84.8244 13.9009 86.271 15.4878Q87.7236 17.0747 87.7236 19.8518L87.7236 28L83.4755 28L83.4755 20.4255Q83.4755 19.0278 82.7492 18.2527Q82.0229 17.4775 80.8022 17.4775Q79.5754 17.4775 78.8491 18.2527Q78.1228 19.0278 78.1228 20.4255L78.1228 28L73.8503 28L73.8503 9.50024L78.1228 9.50024L78.1228 15.9272Q78.7758 14.9995 79.8989 14.4502Q81.028 13.9009 82.4257 13.9009ZM92.8487 12.6008Q91.7257 12.6008 91.0116 11.9417Q90.2975 11.2764 90.2975 10.2998Q90.2975 9.29883 91.0116 8.63965Q91.7257 7.97437 92.8487 7.97437Q93.9474 7.97437 94.6615 8.63965Q95.3756 9.29883 95.3756 10.2998Q95.3756 11.2764 94.6615 11.9417Q93.9474 12.6008 92.8487 12.6008ZM94.9728 14.0474L94.9728 28L90.7003 28L90.7003 14.0474L94.9728 14.0474ZM105.851 24.3745L105.851 28L103.672 28Q101.353 28 100.053 26.8647Q98.7528 25.7234 98.7528 23.1477L98.7528 17.5996L97.0499 17.5996L97.0499 14.0474L98.7528 14.0474L98.7528 10.6477L103.025 10.6477L103.025 14.0474L105.827 14.0474L105.827 17.5996L103.025 17.5996L103.025 23.2026Q103.025 23.8252 103.324 24.0999Q103.623 24.3745 104.325 24.3745L105.851 24.3745ZM121.372 20.7979Q121.372 21.4021 121.299 22.0491L111.625 22.0491Q111.723 23.3491 112.461 24.0388Q113.2 24.7224 114.274 24.7224Q115.873 24.7224 116.502 23.3735L121.049 23.3735Q120.701 24.7529 119.785 25.8516Q118.876 26.9502 117.497 27.5789Q116.123 28.2014 114.426 28.2014Q112.376 28.2014 110.777 27.3286Q109.177 26.4497 108.274 24.8262Q107.377 23.2026 107.377 21.0237Q107.377 18.8508 108.262 17.2273Q109.153 15.5977 110.752 14.7249Q112.351 13.8521 114.426 13.8521Q116.453 13.8521 118.028 14.7004Q119.602 15.5488 120.487 17.1235Q121.372 18.6982 121.372 20.7979ZM117.002 19.6748Q117.002 18.5762 116.251 17.9292Q115.501 17.2761 114.378 17.2761Q113.297 17.2761 112.559 17.9048Q111.826 18.5273 111.649 19.6748L117.002 19.6748ZM122.899 19.1987Q122.899 16.5986 124.022 14.5662Q125.151 12.5276 127.159 11.3923Q129.173 10.251 131.725 10.251Q134.85 10.251 137.071 11.905Q139.299 13.553 140.05 16.3972L135.35 16.3972Q134.825 15.2986 133.861 14.7249Q132.903 14.1511 131.676 14.1511Q129.698 14.1511 128.471 15.5244Q127.251 16.8977 127.251 19.1987Q127.251 21.4998 128.471 22.8792Q129.698 24.2524 131.676 24.2524Q132.903 24.2524 133.861 23.6787Q134.825 23.0989 135.35 22.0002L140.05 22.0002Q139.299 24.8506 137.071 26.4863Q134.85 28.1221 131.725 28.1221Q129.173 28.1221 127.159 26.9868Q125.151 25.8516 124.022 23.8252Q122.899 21.7988 122.899 19.1987ZM149.023 28.2014Q146.972 28.2014 145.336 27.3286Q143.701 26.4497 142.761 24.8262Q141.827 23.2026 141.827 21.0237Q141.827 18.8752 142.773 17.2395Q143.725 15.5977 145.373 14.7249Q147.027 13.8521 149.078 13.8521Q151.123 13.8521 152.771 14.7249Q154.425 15.5977 155.371 17.2395Q156.323 18.8752 156.323 21.0237Q156.323 23.1721 155.358 24.814Q154.4 26.4497 152.734 27.3286Q151.074 28.2014 149.023 28.2014ZM149.023 24.5027Q150.25 24.5027 151.11 23.6055Q151.977 22.7021 151.977 21.0237Q151.977 19.3513 151.135 18.4541Q150.299 17.5508 149.078 17.5508Q147.827 17.5508 146.997 18.4419Q146.173 19.3269 146.173 21.0237Q146.173 22.7021 146.984 23.6055Q147.802 24.5027 149.023 24.5027ZM172.502 20.9993Q172.502 18.8508 173.314 17.2273Q174.125 15.5977 175.523 14.7249Q176.927 13.8521 178.648 13.8521Q180.125 13.8521 181.236 14.4502Q182.353 15.0483 182.951 16.0249L182.951 14.0474L187.224 14.0474L187.224 28L182.951 28L182.951 26.0225Q182.322 26.999 181.212 27.6033Q180.101 28.2014 178.624 28.2014Q176.927 28.2014 175.523 27.3164Q174.125 26.4253 173.314 24.7896Q172.502 23.1477 172.502 20.9993ZM182.951 21.0237Q182.951 19.4246 182.06 18.5029Q181.175 17.5752 179.899 17.5752Q178.624 17.5752 177.733 18.4907Q176.848 19.4001 176.848 20.9993Q176.848 22.5984 177.733 23.5383Q178.624 24.4722 179.899 24.4722Q181.175 24.4722 182.06 23.5505Q182.951 22.6228 182.951 21.0237ZM194.598 16.3728Q195.348 15.2253 196.472 14.5662Q197.601 13.9009 198.974 13.9009L198.974 18.4236L197.802 18.4236Q196.203 18.4236 195.397 19.1133Q194.598 19.803 194.598 21.5242L194.598 28L190.325 28L190.325 14.0474L194.598 14.0474L194.598 16.3728Z" fill="#37393F" fill-opacity="1.000000" fill-rule="evenodd"/>
	<path d="M162.873 9.50024L162.873 28L158.6 28L158.6 9.50024L162.873 9.50024ZM170.248 9.50024L170.248 28L165.975 28L165.975 9.50024L170.248 9.50024Z" fill="#6B77E5" fill-opacity="1.000000" fill-rule="evenodd"/>
	<path d="M0 6L5.87915 6L19.4084 29.4053L16.5505 34.6299L0 6ZM8.49658 6L14.3755 6L28.2004 29.915L25.2607 35L8.49658 6Z" fill="#40DDB6" fill-opacity="1.000000" fill-rule="evenodd"/>
	<path d="M32.5308 22.6948L36.3049 16.1631L30.4275 16.1631L29.5911 17.6099L25.4331 10.4194L39.6201 10.4194L42.1707 6L17 6L29.5945 27.7861L32.5325 22.6982L32.5308 22.6948Z" fill="#6B77E5" fill-opacity="1.000000" fill-rule="nonzero"/>
</svg>
