<svg width="50.000000" height="50.000000" viewBox="0 0 50 50" fill="none" xmlns="http://www.w3.org/2000/svg" xmlns:xlink="http://www.w3.org/1999/xlink">
	<desc>
			Created with Pixso.
	</desc>
	<defs/>
	<rect id="Rectangle 292" rx="25.000000" width="50.000000" height="50.000000" fill="#40DDB6" fill-opacity="1.000000"/>
	<path id="Vector" d="M37.7671 17.207C36.8093 17.6233 35.7959 17.8975 34.7588 18.021C35.8486 17.3828 36.6682 16.3689 37.0637 15.1697C36.0334 15.7722 34.9082 16.1948 33.7358 16.4197C33.2424 15.9023 32.6487 15.491 31.991 15.2102C31.3335 14.9294 30.6257 14.7854 29.9106 14.7866C27.0159 14.7866 24.6731 17.0952 24.6731 19.9412C24.6709 20.3372 24.7163 20.7317 24.8081 21.1169C22.7324 21.0195 20.6997 20.49 18.8403 19.562C16.9807 18.6343 15.3354 17.3284 14.0095 15.7283C13.5444 16.5125 13.2983 17.407 13.2974 18.3188C13.2974 20.1062 14.2297 21.686 15.6379 22.6116C14.8037 22.5918 13.9866 22.3711 13.2559 21.968L13.2559 22.0317C13.2559 24.532 15.0645 26.6118 17.4583 27.0854C17.0081 27.2053 16.5442 27.2661 16.0784 27.2661C15.7478 27.2668 15.418 27.2346 15.0938 27.1704C15.7593 29.2185 17.696 30.708 19.9902 30.7505C18.126 32.1873 15.8372 32.9639 13.4834 32.958C13.0657 32.9575 12.6482 32.9326 12.2334 32.8835C14.6277 34.4126 17.4111 35.2212 20.252 35.2136C29.8994 35.2136 35.1702 27.3567 35.1702 20.5422C35.1702 20.3188 35.1643 20.0955 35.1536 19.8774C36.1765 19.1497 37.0615 18.2454 37.7671 17.207Z" fill="#FFFFFF" fill-opacity="1.000000" fill-rule="nonzero"/>
</svg>
